<svg xmlns="http://www.w3.org/2000/svg" width="1200" height="480" viewBox="0 0 1200 480" role="img" aria-labelledby="title desc">
  <title id="title">Optional agentic SOC orchestrator</title>
  <desc id="desc">LangGraph owns workflow state. cloud-ai-security-skills owns deterministic skills and trust rails. LangChain is optional MCP or triage adapter glue.</desc>

  <defs>
    <linearGradient id="bg" x1="0" y1="0" x2="1" y2="1">
      <stop offset="0%" stop-color="#060b17"/>
      <stop offset="100%" stop-color="#0d172a"/>
    </linearGradient>
    <marker id="arrow" viewBox="0 0 10 10" refX="9" refY="5" markerWidth="8" markerHeight="8" orient="auto">
      <path d="M0 0L10 5L0 10z" fill="#60a5fa"/>
    </marker>
    <marker id="arrow-down" viewBox="0 0 10 10" refX="5" refY="9" markerWidth="8" markerHeight="8" orient="auto">
      <path d="M0 0L5 10L10 0z" fill="#60a5fa"/>
    </marker>
  </defs>

  <rect width="1200" height="480" fill="url(#bg)"/>

  <g font-family="Inter, Segoe UI, ui-sans-serif, Arial, sans-serif">
    <text x="48" y="48" font-size="28" font-weight="800" fill="#f8fafc">Agentic SOC orchestrator</text>
    <text x="48" y="76" font-size="15" fill="#94a3b8">Compose LangGraph + skills — MCP-first, not either/or</text>

    <!-- ownership stack -->
    <g transform="translate(48,104)">
      <rect x="0" y="0" width="1104" height="88" rx="16" fill="#112244" stroke="#60a5fa" stroke-width="2"/>
      <text x="32" y="36" font-size="16" font-weight="800" fill="#dbeafe">cloud-ai-security-skills</text>
      <text x="32" y="62" font-size="13" fill="#94a3b8">131 skills · OCSF wire · MCP · dry-run · audit · allowlists</text>

      <rect x="0" y="104" width="536" height="88" rx="16" fill="#0f2a3b" stroke="#22d3ee"/>
      <text x="32" y="140" font-size="16" font-weight="800" fill="#67e8f9">LangGraph (recommended)</text>
      <text x="32" y="166" font-size="13" fill="#94a3b8">workflow state · branches · checkpoints · HITL routing</text>

      <rect x="568" y="104" width="536" height="88" rx="16" fill="#172033" stroke="#475569"/>
      <text x="600" y="140" font-size="16" font-weight="800" fill="#e2e8f0">LangChain (optional)</text>
      <text x="600" y="166" font-size="13" fill="#94a3b8">MCP stdio wiring · bounded triage message adapter</text>
    </g>

    <!-- pipeline grid -->
    <g transform="translate(48,320)">
      <rect x="0" y="0" width="1104" height="132" rx="16" fill="#052e2b" stroke="#0f766e"/>
      <text x="28" y="32" font-size="11" font-weight="700" fill="#5eead4" letter-spacing="1.2">EXAMPLE PIPELINE</text>
      <text x="900" y="32" font-size="12" fill="#64748b">harness_profiles/</text>

      <g font-size="13" font-weight="700" fill="#e2e8f0">
        <!-- row 1 -->
        <rect x="28" y="48" width="108" height="40" rx="12" fill="#0f172a" stroke="#34d399"/>
        <text x="82" y="74" text-anchor="middle">ingest</text>
        <path d="M144 68H168" stroke="#60a5fa" stroke-width="2.5" marker-end="url(#arrow)"/>

        <rect x="176" y="48" width="108" height="40" rx="12" fill="#0f172a" stroke="#34d399"/>
        <text x="230" y="74" text-anchor="middle">enrich</text>
        <path d="M292 68H316" stroke="#60a5fa" stroke-width="2.5" marker-end="url(#arrow)"/>

        <rect x="324" y="48" width="108" height="40" rx="12" fill="#0f172a" stroke="#34d399"/>
        <text x="378" y="74" text-anchor="middle">triage</text>
        <path d="M440 68H464" stroke="#60a5fa" stroke-width="2.5" marker-end="url(#arrow)"/>

        <rect x="472" y="48" width="132" height="40" rx="12" fill="#0f172a" stroke="#fbbf24"/>
        <text x="538" y="74" text-anchor="middle">analyst review</text>

        <!-- bend -->
        <path d="M538 96V112" stroke="#60a5fa" stroke-width="2.5" marker-end="url(#arrow-down)"/>

        <!-- row 2 -->
        <rect x="472" y="116" width="152" height="40" rx="12" fill="#0f172a" stroke="#fbbf24"/>
        <text x="548" y="142" text-anchor="middle">dry-run remediate</text>
        <path d="M632 136H656" stroke="#60a5fa" stroke-width="2.5" marker-end="url(#arrow)"/>

        <rect x="664" y="116" width="108" height="40" rx="12" fill="#0f172a" stroke="#2dd4bf"/>
        <text x="718" y="142" text-anchor="middle">audit</text>
        <path d="M780 136H804" stroke="#60a5fa" stroke-width="2.5" marker-end="url(#arrow)"/>

        <rect x="812" y="116" width="140" height="40" rx="12" fill="#0f172a" stroke="#2dd4bf"/>
        <text x="882" y="142" text-anchor="middle">verify closure</text>
      </g>
    </g>
  </g>
</svg>
