<svg xmlns="http://www.w3.org/2000/svg" width="1200" height="320" viewBox="0 0 1200 320" role="img" aria-labelledby="title desc">
  <title id="title">Optional agentic SOC orchestrator</title>
  <desc id="desc">LangGraph owns workflow state. cloud-ai-security-skills owns deterministic skills and trust rails. LangChain is optional LLM adapter glue.</desc>

  <defs>
    <linearGradient id="bg" x1="0" y1="0" x2="1" y2="1">
      <stop offset="0%" stop-color="#060b17"/>
      <stop offset="100%" stop-color="#0d172a"/>
    </linearGradient>
    <marker id="arrow" viewBox="0 0 10 10" refX="9" refY="5" markerWidth="7" markerHeight="7" orient="auto">
      <path d="M0 0L10 5L0 10z" fill="#60a5fa"/>
    </marker>
  </defs>

  <rect width="1200" height="320" fill="url(#bg)"/>

  <g font-family="Inter, Segoe UI, ui-sans-serif, Arial, sans-serif">
    <text x="48" y="48" font-size="26" font-weight="800" fill="#f8fafc">Agentic SOC orchestrator</text>
    <text x="48" y="74" font-size="13" fill="#94a3b8">Compose LangGraph + skills — not either/or</text>

    <!-- ownership row -->
    <g transform="translate(48,100)">
      <rect x="0" y="0" width="340" height="72" rx="14" fill="#0f2a3b" stroke="#22d3ee"/>
      <text x="24" y="30" font-size="14" font-weight="800" fill="#67e8f9">LangGraph</text>
      <text x="24" y="52" font-size="11" fill="#94a3b8">workflow state · branches · checkpoints · HITL routing</text>

      <rect x="360" y="0" width="400" height="72" rx="14" fill="#112244" stroke="#60a5fa" stroke-width="2"/>
      <text x="384" y="30" font-size="14" font-weight="800" fill="#dbeafe">cloud-ai-security-skills</text>
      <text x="384" y="52" font-size="11" fill="#94a3b8">131 skills · OCSF wire · MCP · dry-run · audit · allowlists</text>

      <rect x="780" y="0" width="324" height="72" rx="14" fill="#172033" stroke="#475569"/>
      <text x="804" y="30" font-size="14" font-weight="800" fill="#e2e8f0">LangChain (optional)</text>
      <text x="804" y="52" font-size="11" fill="#94a3b8">LLM message adapter · bounded triage schema gate</text>
    </g>

    <!-- pipeline row -->
    <g transform="translate(48,196)">
      <rect x="0" y="0" width="1104" height="88" rx="14" fill="#052e2b" stroke="#0f766e"/>
      <text x="24" y="28" font-size="10" font-weight="700" fill="#5eead4" letter-spacing="1.2">EXAMPLE PIPELINE</text>

      <g font-size="11" font-weight="700" fill="#e2e8f0">
        <rect x="24" y="40" width="88" height="32" rx="10" fill="#0f172a" stroke="#34d399"/>
        <text x="68" y="61" text-anchor="middle">ingest</text>
        <path d="M120 56H140" stroke="#60a5fa" stroke-width="2" marker-end="url(#arrow)"/>

        <rect x="148" y="40" width="88" height="32" rx="10" fill="#0f172a" stroke="#34d399"/>
        <text x="192" y="61" text-anchor="middle">enrich</text>
        <path d="M244 56H264" stroke="#60a5fa" stroke-width="2" marker-end="url(#arrow)"/>

        <rect x="272" y="40" width="88" height="32" rx="10" fill="#0f172a" stroke="#34d399"/>
        <text x="316" y="61" text-anchor="middle">triage</text>
        <path d="M368 56H388" stroke="#60a5fa" stroke-width="2" marker-end="url(#arrow)"/>

        <rect x="396" y="40" width="110" height="32" rx="10" fill="#0f172a" stroke="#fbbf24"/>
        <text x="451" y="61" text-anchor="middle">analyst review</text>
        <path d="M514 56H534" stroke="#60a5fa" stroke-width="2" marker-end="url(#arrow)"/>

        <rect x="542" y="40" width="130" height="32" rx="10" fill="#0f172a" stroke="#fbbf24"/>
        <text x="607" y="61" text-anchor="middle">dry-run remediate</text>
        <path d="M680 56H700" stroke="#60a5fa" stroke-width="2" marker-end="url(#arrow)"/>

        <rect x="708" y="40" width="88" height="32" rx="10" fill="#0f172a" stroke="#2dd4bf"/>
        <text x="752" y="61" text-anchor="middle">audit</text>
        <path d="M804 56H824" stroke="#60a5fa" stroke-width="2" marker-end="url(#arrow)"/>

        <rect x="832" y="40" width="120" height="32" rx="10" fill="#0f172a" stroke="#2dd4bf"/>
        <text x="892" y="61" text-anchor="middle">verify closure</text>
      </g>

      <text x="980" y="61" font-size="10" fill="#64748b">harness_profiles/</text>
    </g>
  </g>
</svg>
