<svg xmlns="http://www.w3.org/2000/svg" width="1400" height="1680" viewBox="0 0 1400 1680" role="img" aria-labelledby="cm-title cm-desc">
  <title id="cm-title">cloud-ai-security-skills — detection and posture coverage matrix</title>
  <desc id="cm-desc">Coverage matrix visualizing the gap between shipped detection and posture skills and their paired remediation, with ATT&amp;CK or ATLAS technique IDs where the detector emits them and framework notes where it does not. Rows list every shipped detection (35) plus every CSPM benchmark family (4 native CIS scopes). Columns are: skill name, mapping or note, detector or check shipped status, paired remediation status, and the tracking issue or notes. Green cells mean a closed loop is shipped; amber cells mean a remediation skill is on the roadmap; red cells mean no remediation exists or is planned. Thirteen of twenty-nine detection rows are closed loops today; lateral-movement is intentionally detection-only because the response is per-arm fan-out via existing remediation skills, and the access-key, login-profile, GCP service-account-key, GCP service-account-token-minting, discovery-burst, cross-account-copy, logging-impairment, AWS and GCP model-artifact-download, MCP credential-leak, system-prompt-extraction, tool-output-policy-bypass, and tool-output-exfiltration-instructions slices are still detection-first. The matrix is the single source of truth for closed-loop coverage and updates whenever a remediation skill ships.</desc>

  <defs>
    <linearGradient id="bg2" x1="0" y1="0" x2="1" y2="1">
      <stop offset="0%" stop-color="#060b17"/>
      <stop offset="100%" stop-color="#0a1325"/>
    </linearGradient>
    <pattern id="grid2" x="0" y="0" width="40" height="40" patternUnits="userSpaceOnUse">
      <path d="M40 0H0V40" fill="none" stroke="#1e293b" stroke-opacity="0.25" stroke-width="1"/>
    </pattern>
  </defs>

  <rect width="1400" height="1620" fill="url(#bg2)"/>
  <rect width="1400" height="1620" fill="url(#grid2)"/>

  <!-- Title block -->
  <text x="48" y="62" fill="#f1f5f9" font-family="Inter, system-ui, sans-serif" font-size="30" font-weight="900">Closed-loop coverage matrix</text>
  <text x="48" y="94" fill="#94a3b8" font-family="Inter, system-ui, sans-serif" font-size="16">Every shipped detection and posture check, mapped to whether a paired remediation exists, is planned, or is missing.</text>
  <text x="48" y="116" fill="#94a3b8" font-family="Inter, system-ui, sans-serif" font-size="16">Green rows are closed loops. MITRE IDs are shown where emitted; OWASP/MCP notes appear where the detector is intentionally non-MITRE.</text>

  <!-- Legend -->
  <g transform="translate(48,144)" font-family="Inter, system-ui, sans-serif" font-size="14">
    <g>
      <rect x="0" y="0" width="18" height="18" rx="4" fill="#16a34a" stroke="#22c55e"/>
      <text x="28" y="14" fill="#dcfce7">shipped (closed loop)</text>
    </g>
    <g transform="translate(230,0)">
      <rect x="0" y="0" width="18" height="18" rx="4" fill="#b45309" stroke="#f59e0b"/>
      <text x="28" y="14" fill="#fef3c7">planned (issue tracked)</text>
    </g>
    <g transform="translate(460,0)">
      <rect x="0" y="0" width="18" height="18" rx="4" fill="#7f1d1d" stroke="#ef4444"/>
      <text x="28" y="14" fill="#fee2e2">missing (no issue yet)</text>
    </g>
    <g transform="translate(680,0)">
      <rect x="0" y="0" width="18" height="18" rx="4" fill="#1e3a8a" stroke="#3b82f6"/>
      <text x="28" y="14" fill="#dbeafe">posture-only</text>
    </g>
  </g>

  <!-- Column headers (text baseline at y=200; divider at y=212 — clean separation) -->
  <g font-family="Inter, system-ui, sans-serif" font-size="14" font-weight="800" fill="#cbd5e1">
    <text x="48"   y="200">Skill</text>
    <text x="430"  y="200">Mapping / note</text>
    <text x="780"  y="200" text-anchor="middle">Detector</text>
    <text x="900"  y="200" text-anchor="middle">Remediation</text>
    <text x="1020" y="200">Status / issue</text>
  </g>
  <line x1="48" y1="212" x2="1352" y2="212" stroke="#334155" stroke-width="1.5"/>

  <!-- DETECTION SECTION -->
  <text x="48" y="244" fill="#5eead4" font-family="Inter, system-ui, sans-serif" font-size="15" font-weight="900">DETECTION (35)</text>

  <!-- Row stride 38 starting at y=276; badge y = row_text_y - 16 (badge height 22) -->
  <g font-family="Inter, system-ui, sans-serif">
    <text x="48"   y="290" fill="#f1f5f9" font-size="15">detect-okta-mfa-fatigue</text>
    <text x="430"  y="290" fill="#cbd5e1" font-size="14">T1621</text>
    <rect x="760"  y="274" width="40" height="22" rx="4" fill="#16a34a" stroke="#22c55e"/>
    <rect x="880"  y="274" width="40" height="22" rx="4" fill="#16a34a" stroke="#22c55e"/>
    <text x="1020" y="290" fill="#dcfce7" font-size="13">→ remediate-okta-session-kill</text>
  </g>
  <g font-family="Inter, system-ui, sans-serif">
    <text x="48"   y="328" fill="#f1f5f9" font-size="15">detect-credential-stuffing-okta</text>
    <text x="430"  y="328" fill="#cbd5e1" font-size="14">T1110 · T1110.003</text>
    <rect x="760"  y="312" width="40" height="22" rx="4" fill="#16a34a" stroke="#22c55e"/>
    <rect x="880"  y="312" width="40" height="22" rx="4" fill="#16a34a" stroke="#22c55e"/>
    <text x="1020" y="328" fill="#dcfce7" font-size="13">→ remediate-okta-session-kill</text>
  </g>
  <g font-family="Inter, system-ui, sans-serif">
    <text x="48"   y="366" fill="#f1f5f9" font-size="15">detect-container-escape-k8s</text>
    <text x="430"  y="366" fill="#cbd5e1" font-size="14">T1611 · T1610</text>
    <rect x="760"  y="350" width="40" height="22" rx="4" fill="#16a34a" stroke="#22c55e"/>
    <rect x="880"  y="350" width="40" height="22" rx="4" fill="#16a34a" stroke="#22c55e"/>
    <text x="1020" y="366" fill="#dcfce7" font-size="13">→ remediate-container-escape-k8s</text>
  </g>
  <g font-family="Inter, system-ui, sans-serif">
    <text x="48"   y="404" fill="#f1f5f9" font-size="15">detect-privilege-escalation-k8s</text>
    <text x="430"  y="404" fill="#cbd5e1" font-size="14">T1552.007 · T1611 · T1098 · T1550.001</text>
    <rect x="760"  y="388" width="40" height="22" rx="4" fill="#16a34a" stroke="#22c55e"/>
    <rect x="880"  y="388" width="40" height="22" rx="4" fill="#16a34a" stroke="#22c55e"/>
    <text x="1020" y="404" fill="#dcfce7" font-size="13">→ remediate-k8s-rbac-revoke</text>
  </g>
  <g font-family="Inter, system-ui, sans-serif">
    <text x="48"   y="442" fill="#f1f5f9" font-size="15">detect-sensitive-secret-read-k8s</text>
    <text x="430"  y="442" fill="#cbd5e1" font-size="14">T1552 · T1552.007</text>
    <rect x="760"  y="426" width="40" height="22" rx="4" fill="#16a34a" stroke="#22c55e"/>
    <rect x="880"  y="426" width="40" height="22" rx="4" fill="#16a34a" stroke="#22c55e"/>
    <text x="1020" y="442" fill="#dcfce7" font-size="13">→ remediate-k8s-rbac-revoke (covers)</text>
  </g>
  <g font-family="Inter, system-ui, sans-serif">
    <text x="48"   y="480" fill="#f1f5f9" font-size="15">detect-entra-credential-addition</text>
    <text x="430"  y="480" fill="#cbd5e1" font-size="14">T1098 · T1098.001</text>
    <rect x="760"  y="464" width="40" height="22" rx="4" fill="#16a34a" stroke="#22c55e"/>
    <rect x="880"  y="464" width="40" height="22" rx="4" fill="#16a34a" stroke="#22c55e"/>
    <text x="1020" y="480" fill="#dcfce7" font-size="13">→ remediate-entra-credential-revoke</text>
  </g>
  <g font-family="Inter, system-ui, sans-serif">
    <text x="48"   y="518" fill="#f1f5f9" font-size="15">detect-entra-role-grant-escalation</text>
    <text x="430"  y="518" fill="#cbd5e1" font-size="14">T1098 · T1098.003</text>
    <rect x="760"  y="502" width="40" height="22" rx="4" fill="#16a34a" stroke="#22c55e"/>
    <rect x="880"  y="502" width="40" height="22" rx="4" fill="#16a34a" stroke="#22c55e"/>
    <text x="1020" y="518" fill="#dcfce7" font-size="13">→ remediate-entra-credential-revoke</text>
  </g>
  <g font-family="Inter, system-ui, sans-serif">
    <text x="48"   y="556" fill="#f1f5f9" font-size="15">detect-google-workspace-suspicious-login</text>
    <text x="430"  y="556" fill="#cbd5e1" font-size="14">T1110 · T1078</text>
    <rect x="760"  y="540" width="40" height="22" rx="4" fill="#16a34a" stroke="#22c55e"/>
    <rect x="880"  y="540" width="40" height="22" rx="4" fill="#16a34a" stroke="#22c55e"/>
    <text x="1020" y="556" fill="#dcfce7" font-size="13">→ remediate-workspace-session-kill</text>
  </g>
  <g font-family="Inter, system-ui, sans-serif">
    <text x="48"   y="594" fill="#f1f5f9" font-size="15">detect-lateral-movement</text>
    <text x="430"  y="594" fill="#cbd5e1" font-size="14">T1021 · T1078.004 (TA0008)</text>
    <rect x="760"  y="578" width="40" height="22" rx="4" fill="#16a34a" stroke="#22c55e"/>
    <rect x="880"  y="578" width="40" height="22" rx="4" fill="#7f1d1d" stroke="#ef4444"/>
    <text x="1020" y="594" fill="#fee2e2" font-size="13">cross-cloud · per-arm fan-out</text>
  </g>
  <g font-family="Inter, system-ui, sans-serif">
    <text x="48"   y="632" fill="#f1f5f9" font-size="15">detect-mcp-tool-drift</text>
    <text x="430"  y="632" fill="#cbd5e1" font-size="14">T1195.001 (TA0001)</text>
    <rect x="760"  y="616" width="40" height="22" rx="4" fill="#16a34a" stroke="#22c55e"/>
    <rect x="880"  y="616" width="40" height="22" rx="4" fill="#16a34a" stroke="#22c55e"/>
    <text x="1020" y="632" fill="#dcfce7" font-size="13">→ remediate-mcp-tool-quarantine</text>
  </g>
  <g font-family="Inter, system-ui, sans-serif">
    <text x="48"   y="670" fill="#f1f5f9" font-size="15">detect-prompt-injection-mcp-proxy</text>
    <text x="430"  y="670" fill="#cbd5e1" font-size="14">ATLAS AML.T0051</text>
    <rect x="760"  y="654" width="40" height="22" rx="4" fill="#16a34a" stroke="#22c55e"/>
    <rect x="880"  y="654" width="40" height="22" rx="4" fill="#16a34a" stroke="#22c55e"/>
    <text x="1020" y="670" fill="#dcfce7" font-size="13">→ remediate-mcp-tool-quarantine</text>
  </g>
  <g font-family="Inter, system-ui, sans-serif">
    <text x="48"   y="708" fill="#f1f5f9" font-size="15">detect-aws-open-security-group</text>
    <text x="430"  y="708" fill="#cbd5e1" font-size="14">T1190 (TA0001)</text>
    <rect x="760"  y="692" width="40" height="22" rx="4" fill="#16a34a" stroke="#22c55e"/>
    <rect x="880"  y="692" width="40" height="22" rx="4" fill="#16a34a" stroke="#22c55e"/>
    <text x="1020" y="708" fill="#dcfce7" font-size="13">→ remediate-aws-sg-revoke (#307 phase A)</text>
  </g>
  <g font-family="Inter, system-ui, sans-serif">
    <text x="48"   y="746" fill="#f1f5f9" font-size="15">detect-gcp-open-firewall</text>
    <text x="430"  y="746" fill="#cbd5e1" font-size="14">T1190 (TA0001)</text>
    <rect x="760"  y="730" width="40" height="22" rx="4" fill="#16a34a" stroke="#22c55e"/>
    <rect x="880"  y="730" width="40" height="22" rx="4" fill="#16a34a" stroke="#22c55e"/>
    <text x="1020" y="746" fill="#dcfce7" font-size="13">→ remediate-gcp-firewall-revoke (#307 phase B-1)</text>
  </g>
  <g font-family="Inter, system-ui, sans-serif">
    <text x="48"   y="784" fill="#f1f5f9" font-size="15">detect-azure-open-nsg</text>
    <text x="430"  y="784" fill="#cbd5e1" font-size="14">T1190 (TA0001)</text>
    <rect x="760"  y="768" width="40" height="22" rx="4" fill="#16a34a" stroke="#22c55e"/>
    <rect x="880"  y="768" width="40" height="22" rx="4" fill="#16a34a" stroke="#22c55e"/>
    <text x="1020" y="784" fill="#dcfce7" font-size="13">→ remediate-azure-nsg-revoke (#307 phase B-2)</text>
  </g>
  <g font-family="Inter, system-ui, sans-serif">
    <text x="48"   y="822" fill="#f1f5f9" font-size="15">detect-cloudtrail-disabled</text>
    <text x="430"  y="822" fill="#cbd5e1" font-size="14">T1562.001 (TA0005)</text>
    <rect x="760"  y="806" width="40" height="22" rx="4" fill="#16a34a" stroke="#22c55e"/>
    <rect x="880"  y="806" width="40" height="22" rx="4" fill="#b45309" stroke="#f59e0b"/>
    <text x="1020" y="822" fill="#fef3c7" font-size="13">response gap tracked in #253</text>
  </g>
  <g font-family="Inter, system-ui, sans-serif">
    <text x="48"   y="860" fill="#f1f5f9" font-size="15">detect-gcp-audit-logs-disabled</text>
    <text x="430"  y="860" fill="#cbd5e1" font-size="14">T1562.001 (TA0005)</text>
    <rect x="760"  y="844" width="40" height="22" rx="4" fill="#16a34a" stroke="#22c55e"/>
    <rect x="880"  y="844" width="40" height="22" rx="4" fill="#b45309" stroke="#f59e0b"/>
    <text x="1020" y="860" fill="#fef3c7" font-size="13">response gap tracked in #253</text>
  </g>
  <g font-family="Inter, system-ui, sans-serif">
    <text x="48"   y="898" fill="#f1f5f9" font-size="15">detect-azure-activity-logs-disabled</text>
    <text x="430"  y="898" fill="#cbd5e1" font-size="14">T1562.001 (TA0005)</text>
    <rect x="760"  y="882" width="40" height="22" rx="4" fill="#16a34a" stroke="#22c55e"/>
    <rect x="880"  y="882" width="40" height="22" rx="4" fill="#b45309" stroke="#f59e0b"/>
    <text x="1020" y="898" fill="#fef3c7" font-size="13">response gap tracked in #253</text>
  </g>
  <g font-family="Inter, system-ui, sans-serif">
    <text x="48"   y="936" fill="#f1f5f9" font-size="15">detect-agent-credential-leak-mcp</text>
    <text x="430"  y="936" fill="#cbd5e1" font-size="14">OWASP MCP / LLM</text>
    <rect x="760"  y="920" width="40" height="22" rx="4" fill="#16a34a" stroke="#22c55e"/>
    <rect x="880"  y="920" width="40" height="22" rx="4" fill="#b45309" stroke="#f59e0b"/>
    <text x="1020" y="936" fill="#fef3c7" font-size="13">→ credential rotation / quarantine follow-up in #255</text>
  </g>
  <g font-family="Inter, system-ui, sans-serif">
    <text x="48"   y="974" fill="#f1f5f9" font-size="15">detect-aws-access-key-creation</text>
    <text x="430"  y="974" fill="#cbd5e1" font-size="14">T1098.001 (TA0003)</text>
    <rect x="760"  y="958" width="40" height="22" rx="4" fill="#16a34a" stroke="#22c55e"/>
    <rect x="880"  y="958" width="40" height="22" rx="4" fill="#7f1d1d" stroke="#ef4444"/>
    <text x="1020" y="974" fill="#fee2e2" font-size="13">detection-first AWS IAM-user access-key persistence slice</text>
  </g>
  <g font-family="Inter, system-ui, sans-serif">
    <text x="48"   y="1012" fill="#f1f5f9" font-size="15">detect-aws-login-profile-creation</text>
    <text x="430"  y="1012" fill="#cbd5e1" font-size="14">T1098.001 (TA0003)</text>
    <rect x="760"  y="996" width="40" height="22" rx="4" fill="#16a34a" stroke="#22c55e"/>
    <rect x="880"  y="996" width="40" height="22" rx="4" fill="#7f1d1d" stroke="#ef4444"/>
    <text x="1020" y="1012" fill="#fee2e2" font-size="13">detection-first AWS IAM-user console persistence slice</text>
  </g>
  <g font-family="Inter, system-ui, sans-serif">
    <text x="48"   y="1050" fill="#f1f5f9" font-size="13">detect-gcp-service-account-key-creation</text>
    <text x="430"  y="1050" fill="#cbd5e1" font-size="14">T1098.001 (TA0003)</text>
    <rect x="760"  y="1034" width="40" height="22" rx="4" fill="#16a34a" stroke="#22c55e"/>
    <rect x="880"  y="1034" width="40" height="22" rx="4" fill="#7f1d1d" stroke="#ef4444"/>
    <text x="1020" y="1050" fill="#fee2e2" font-size="13">detection-first GCP service-account key persistence slice</text>
  </g>
  <g font-family="Inter, system-ui, sans-serif">
    <text x="48"   y="1088" fill="#f1f5f9" font-size="12">detect-gcp-service-account-token-minting</text>
    <text x="430"  y="1088" fill="#cbd5e1" font-size="14">T1098.001 (TA0003)</text>
    <rect x="760"  y="1072" width="40" height="22" rx="4" fill="#16a34a" stroke="#22c55e"/>
    <rect x="880"  y="1072" width="40" height="22" rx="4" fill="#7f1d1d" stroke="#ef4444"/>
    <text x="1020" y="1088" fill="#fee2e2" font-size="13">detection-first GCP service-account token persistence slice</text>
  </g>
  <g font-family="Inter, system-ui, sans-serif">
    <text x="48"   y="1126" fill="#f1f5f9" font-size="15">detect-aws-enumeration-burst</text>
    <text x="430"  y="1126" fill="#cbd5e1" font-size="14">T1526 (TA0007)</text>
    <rect x="760"  y="1110" width="40" height="22" rx="4" fill="#16a34a" stroke="#22c55e"/>
    <rect x="880"  y="1110" width="40" height="22" rx="4" fill="#7f1d1d" stroke="#ef4444"/>
    <text x="1020" y="1126" fill="#fee2e2" font-size="13">detection-first AWS cloud discovery burst slice</text>
  </g>
  <g font-family="Inter, system-ui, sans-serif">
    <text x="48"   y="1164" fill="#f1f5f9" font-size="15">detect-s3-cross-account-copy</text>
    <text x="430"  y="1164" fill="#cbd5e1" font-size="14">T1537 (TA0010)</text>
    <rect x="760"  y="1148" width="40" height="22" rx="4" fill="#16a34a" stroke="#22c55e"/>
    <rect x="880"  y="1148" width="40" height="22" rx="4" fill="#7f1d1d" stroke="#ef4444"/>
    <text x="1020" y="1164" fill="#fee2e2" font-size="13">detection-first AWS exfiltration to cloud account slice</text>
  </g>
  <g font-family="Inter, system-ui, sans-serif">
    <text x="48"   y="1202" fill="#f1f5f9" font-size="15">detect-system-prompt-extraction</text>
    <text x="430"  y="1202" fill="#cbd5e1" font-size="14">ATLAS AML.T0004 · AML.T0041</text>
    <rect x="760"  y="1186" width="40" height="22" rx="4" fill="#16a34a" stroke="#22c55e"/>
    <rect x="880"  y="1186" width="40" height="22" rx="4" fill="#7f1d1d" stroke="#ef4444"/>
    <text x="1020" y="1202" fill="#fee2e2" font-size="13">detection-first AI system-prompt leakage slice</text>
  </g>
  <g font-family="Inter, system-ui, sans-serif">
    <text x="48"   y="1240" fill="#f1f5f9" font-size="15">detect-tool-output-policy-bypass</text>
    <text x="430"  y="1240" fill="#cbd5e1" font-size="14">ATLAS AML.T0051</text>
    <rect x="760"  y="1224" width="40" height="22" rx="4" fill="#16a34a" stroke="#22c55e"/>
    <rect x="880"  y="1224" width="40" height="22" rx="4" fill="#7f1d1d" stroke="#ef4444"/>
    <text x="1020" y="1240" fill="#fee2e2" font-size="13">detection-first AI response-layer policy-bypass slice</text>
  </g>
  <g font-family="Inter, system-ui, sans-serif">
    <text x="48"   y="1278" fill="#f1f5f9" font-size="13">detect-tool-output-exfiltration-instructions</text>
    <text x="430"  y="1278" fill="#cbd5e1" font-size="14">ATLAS AML.T0051</text>
    <rect x="760"  y="1262" width="40" height="22" rx="4" fill="#16a34a" stroke="#22c55e"/>
    <rect x="880"  y="1262" width="40" height="22" rx="4" fill="#7f1d1d" stroke="#ef4444"/>
    <text x="1020" y="1278" fill="#fee2e2" font-size="13">detection-first AI response exfiltration-instruction slice</text>
  </g>
  <g font-family="Inter, system-ui, sans-serif">
    <text x="48"   y="1316" fill="#f1f5f9" font-size="14">detect-aws-model-artifact-download</text>
    <text x="430"  y="1316" fill="#cbd5e1" font-size="14">T1530 · AML.T0035</text>
    <rect x="760"  y="1300" width="40" height="22" rx="4" fill="#16a34a" stroke="#22c55e"/>
    <rect x="880"  y="1300" width="40" height="22" rx="4" fill="#7f1d1d" stroke="#ef4444"/>
    <text x="1020" y="1316" fill="#fee2e2" font-size="13">detection-first AWS AI model-artifact collection slice</text>
  </g>
  <g font-family="Inter, system-ui, sans-serif">
    <text x="48"   y="1354" fill="#f1f5f9" font-size="14">detect-gcp-model-artifact-download</text>
    <text x="430"  y="1354" fill="#cbd5e1" font-size="14">T1530 · AML.T0035</text>
    <rect x="760"  y="1338" width="40" height="22" rx="4" fill="#16a34a" stroke="#22c55e"/>
    <rect x="880"  y="1338" width="40" height="22" rx="4" fill="#7f1d1d" stroke="#ef4444"/>
    <text x="1020" y="1354" fill="#fee2e2" font-size="13">detection-first GCP AI model-artifact collection slice</text>
  </g>
  <g font-family="Inter, system-ui, sans-serif">
    <text x="48"   y="1374" fill="#f1f5f9" font-size="14">detect-web-broken-access-control</text>
    <text x="430"  y="1374" fill="#cbd5e1" font-size="14">T1212 (TA0006) · OWASP A01:2021</text>
    <rect x="760"  y="1358" width="40" height="22" rx="4" fill="#16a34a" stroke="#22c55e"/>
    <rect x="880"  y="1358" width="40" height="22" rx="4" fill="#7f1d1d" stroke="#ef4444"/>
    <text x="1020" y="1374" fill="#fee2e2" font-size="13">detection-only IDOR / auth-swap-flip slice (#431)</text>
  </g>
  <g font-family="Inter, system-ui, sans-serif">
    <text x="48"   y="1394" fill="#f1f5f9" font-size="14">detect-web-injection</text>
    <text x="430"  y="1394" fill="#cbd5e1" font-size="14">T1190 (TA0001) · OWASP A03:2021</text>
    <rect x="760"  y="1378" width="40" height="22" rx="4" fill="#16a34a" stroke="#22c55e"/>
    <rect x="880"  y="1378" width="40" height="22" rx="4" fill="#7f1d1d" stroke="#ef4444"/>
    <text x="1020" y="1394" fill="#fee2e2" font-size="13">detection-only sql/cmd/ldap/nosql/xpath/template slice (#431)</text>
  </g>
  <g font-family="Inter, system-ui, sans-serif">
    <text x="48"   y="1414" fill="#f1f5f9" font-size="14">detect-web-auth-failures</text>
    <text x="430"  y="1414" fill="#cbd5e1" font-size="14">T1110 · T1078 (TA0006) · OWASP A07:2021</text>
    <rect x="760"  y="1398" width="40" height="22" rx="4" fill="#16a34a" stroke="#22c55e"/>
    <rect x="880"  y="1398" width="40" height="22" rx="4" fill="#7f1d1d" stroke="#ef4444"/>
    <text x="1020" y="1414" fill="#fee2e2" font-size="13">detection-only brute-force / stuffing-flip / weak-login slice (#431)</text>
  </g>
  <g font-family="Inter, system-ui, sans-serif">
    <text x="48"   y="1434" fill="#f1f5f9" font-size="14">detect-snowflake-bulk-data-egress</text>
    <text x="430"  y="1434" fill="#cbd5e1" font-size="14">T1567 (TA0010) · OWASP A04:2021</text>
    <rect x="760"  y="1418" width="40" height="22" rx="4" fill="#16a34a" stroke="#22c55e"/>
    <rect x="880"  y="1418" width="40" height="22" rx="4" fill="#7f1d1d" stroke="#ef4444"/>
    <text x="1020" y="1434" fill="#fee2e2" font-size="13">detection-only — warehouse principal exfiltration slice (#436)</text>
  </g>
  <g font-family="Inter, system-ui, sans-serif">
    <text x="48"   y="1454" fill="#f1f5f9" font-size="14">detect-clickhouse-bulk-export</text>
    <text x="430"  y="1454" fill="#cbd5e1" font-size="14">T1567 (TA0010) · OWASP A04:2021</text>
    <rect x="760"  y="1438" width="40" height="22" rx="4" fill="#16a34a" stroke="#22c55e"/>
    <rect x="880"  y="1438" width="40" height="22" rx="4" fill="#7f1d1d" stroke="#ef4444"/>
    <text x="1020" y="1454" fill="#fee2e2" font-size="13">detection-only — ClickHouse bulk row export slice (#436)</text>
  </g>
  <g font-family="Inter, system-ui, sans-serif">
    <text x="48"   y="1474" fill="#f1f5f9" font-size="14">detect-databricks-token-creation</text>
    <text x="430"  y="1474" fill="#cbd5e1" font-size="14">T1098.001 (TA0003) · OWASP-LLM-LLM02</text>
    <rect x="760"  y="1458" width="40" height="22" rx="4" fill="#16a34a" stroke="#22c55e"/>
    <rect x="880"  y="1458" width="40" height="22" rx="4" fill="#7f1d1d" stroke="#ef4444"/>
    <text x="1020" y="1474" fill="#fee2e2" font-size="13">detection-only — Databricks PAT issuance slice (#436)</text>
  </g>

  <!-- EVALUATION SECTION -->
  <text x="48" y="1508" fill="#5eead4" font-family="Inter, system-ui, sans-serif" font-size="15" font-weight="900">EVALUATION / CSPM (4 platforms · 91 checks)</text>

  <g font-family="Inter, system-ui, sans-serif">
    <text x="48"   y="1522" fill="#f1f5f9" font-size="15">cspm-aws-cis-benchmark</text>
    <text x="430"  y="1522" fill="#cbd5e1" font-size="14">CIS AWS Foundations 3.0</text>
    <rect x="760"  y="1506" width="40" height="22" rx="4" fill="#16a34a" stroke="#22c55e"/>
    <rect x="880"  y="1506" width="40" height="22" rx="4" fill="#b45309" stroke="#f59e0b"/>
    <text x="1020" y="1522" fill="#fef3c7" font-size="13">#242 #254 · guarded --auto-remediate shipped</text>
  </g>
  <g font-family="Inter, system-ui, sans-serif">
    <text x="48"   y="1552" fill="#f1f5f9" font-size="15">cspm-gcp-cis-benchmark</text>
    <text x="430"  y="1552" fill="#cbd5e1" font-size="14">CIS GCP Foundations 3.0</text>
    <rect x="760"  y="1536" width="40" height="22" rx="4" fill="#16a34a" stroke="#22c55e"/>
    <rect x="880"  y="1536" width="40" height="22" rx="4" fill="#b45309" stroke="#f59e0b"/>
    <text x="1020" y="1552" fill="#fef3c7" font-size="13">#242 #254 · auto-remediate tracked</text>
  </g>
  <g font-family="Inter, system-ui, sans-serif">
    <text x="48"   y="1582" fill="#f1f5f9" font-size="15">cspm-azure-cis-benchmark</text>
    <text x="430"  y="1582" fill="#cbd5e1" font-size="14">CIS Azure Foundations 2.1</text>
    <rect x="760"  y="1566" width="40" height="22" rx="4" fill="#16a34a" stroke="#22c55e"/>
    <rect x="880"  y="1566" width="40" height="22" rx="4" fill="#b45309" stroke="#f59e0b"/>
    <text x="1020" y="1582" fill="#fef3c7" font-size="13">#242 #254 · auto-remediate tracked</text>
  </g>
  <g font-family="Inter, system-ui, sans-serif">
    <text x="48"   y="1612" fill="#f1f5f9" font-size="15">k8s + container + model + gpu benchmarks</text>
    <text x="430"  y="1612" fill="#cbd5e1" font-size="14">CIS K8s · NIST SSDF · OWASP LLM</text>
    <rect x="760"  y="1596" width="40" height="22" rx="4" fill="#16a34a" stroke="#22c55e"/>
    <rect x="880"  y="1596" width="40" height="22" rx="4" fill="#1e3a8a" stroke="#3b82f6"/>
    <text x="1020" y="1612" fill="#dbeafe" font-size="13">posture-only · selective containment exists elsewhere</text>
  </g>

  <!-- Footer (two lines to fit canvas) -->
  <g font-family="Inter, system-ui, sans-serif">
    <text x="48" y="1646" fill="#94a3b8" font-size="13">Closed-loop ratio: <tspan fill="#5eead4" font-weight="900">13 / 35</tspan> · <tspan fill="#f87171" font-weight="900">lateral-movement stays detection-only by design, and the AWS access-key, login-profile, GCP service-account-key/token-minting, discovery, exfiltration, logging, AWS and GCP model-artifact collection, MCP leakage, system-prompt, policy-bypass, response-exfiltration, Snowflake bulk-egress, ClickHouse bulk-export, and Databricks token-creation slices are detection-first today</tspan></text>
    <text x="48" y="1664" fill="#94a3b8" font-size="13">All writes HITL-gated, dry-run-default, dual-audited (DynamoDB + KMS S3, before + after) · contract enforced by scripts/validate_safe_skill_bar.py · CSPM auto-remediation tracked at #242 #254</text>
  </g>
</svg>
