<svg xmlns="http://www.w3.org/2000/svg" width="1280" height="760" viewBox="0 0 1280 760" role="img" aria-labelledby="title desc">
  <title id="title">IAM departures remediation · AWS flagship workflow</title>
  <desc id="desc">AWS IAM departures flagship workflow. Snowflake, Workday, Databricks, or ClickHouse feed the shared read-only reconciler, which normalizes each departure into the canonical record and writes an S3 manifest after rehire, grace-period, and diff checks. S3 ObjectCreated triggers EventBridge, which starts a Step Function inside the VPC. The parser Lambda fetches the record and resolves the target IAM principal and account. The worker Lambda assumes a scoped cross-account role guarded by aws:PrincipalOrgID and performs the revoke, strip, quarantine, and delete sequence against the target accounts. Worker actions audit to DynamoDB and S3-backed warehouse sinks so the next reconciler run can verify closure. Azure Entra and GCP IAM use separate native pipelines.</desc>

  <defs>
    <linearGradient id="bg" x1="0" y1="0" x2="1" y2="1">
      <stop offset="0%" stop-color="#07111f"/>
      <stop offset="100%" stop-color="#0d1b31"/>
    </linearGradient>
    <linearGradient id="panel" x1="0" y1="0" x2="1" y2="1">
      <stop offset="0%" stop-color="#111c33"/>
      <stop offset="100%" stop-color="#0f172a"/>
    </linearGradient>
    <linearGradient id="headline" x1="0" y1="0" x2="1" y2="0">
      <stop offset="0%" stop-color="#dbeafe"/>
      <stop offset="55%" stop-color="#bfdbfe"/>
      <stop offset="100%" stop-color="#fde68a"/>
    </linearGradient>
    <pattern id="grid" x="0" y="0" width="36" height="36" patternUnits="userSpaceOnUse">
      <path d="M36 0H0V36" fill="none" stroke="#1e293b" stroke-opacity="0.35" stroke-width="1"/>
    </pattern>
    <filter id="shadow" x="-20%" y="-20%" width="140%" height="140%">
      <feDropShadow dx="0" dy="6" stdDeviation="8" flood-color="#020617" flood-opacity="0.35"/>
    </filter>
    <marker id="arrow" viewBox="0 0 10 10" refX="9" refY="5" markerWidth="8" markerHeight="8" orient="auto">
      <path d="M0 0 L10 5 L0 10 z" fill="#94a3b8"/>
    </marker>
    <marker id="arrowWarm" viewBox="0 0 10 10" refX="9" refY="5" markerWidth="8" markerHeight="8" orient="auto">
      <path d="M0 0 L10 5 L0 10 z" fill="#f59e0b"/>
    </marker>
    <marker id="arrowSink" viewBox="0 0 10 10" refX="9" refY="5" markerWidth="8" markerHeight="8" orient="auto">
      <path d="M0 0 L10 5 L0 10 z" fill="#2dd4bf"/>
    </marker>
    <marker id="arrowLoop" viewBox="0 0 10 10" refX="9" refY="5" markerWidth="8" markerHeight="8" orient="auto">
      <path d="M0 0 L10 5 L0 10 z" fill="#ec4899"/>
    </marker>

    <symbol id="aws" viewBox="0 0 24 24"><path fill="#f59e0b" d="M6.763 10.036c0 .296.032.535.088.71.064.176.144.368.256.576.04.063.056.127.056.183 0 .08-.048.16-.152.24l-.503.335a.383.383 0 0 1-.208.072c-.08 0-.16-.04-.239-.112a2.47 2.47 0 0 1-.287-.375 6.18 6.18 0 0 1-.248-.471c-.622.734-1.405 1.101-2.347 1.101-.67 0-1.205-.191-1.596-.574-.391-.384-.59-.894-.59-1.533 0-.678.239-1.23.726-1.644.487-.415 1.133-.623 1.955-.623.272 0 .551.024.846.064.296.04.6.104.918.176v-.583c0-.607-.127-1.03-.375-1.277-.255-.248-.686-.367-1.3-.367-.28 0-.568.031-.863.103-.295.072-.583.16-.862.272a2.287 2.287 0 0 1-.28.104.488.488 0 0 1-.127.023c-.112 0-.168-.08-.168-.247v-.391c0-.128.016-.224.056-.28a.597.597 0 0 1 .224-.167c.279-.144.614-.264 1.005-.36a4.84 4.84 0 0 1 1.246-.151c.95 0 1.644.216 2.091.647.439.43.662 1.085.662 1.963v2.586zm-3.24 1.214c.263 0 .534-.048.822-.144.287-.096.543-.271.758-.51.128-.152.224-.32.272-.512.047-.191.08-.423.08-.694v-.335a6.66 6.66 0 0 0-.735-.136 6.02 6.02 0 0 0-.75-.048c-.535 0-.926.104-1.19.32-.263.215-.39.518-.39.917 0 .375.095.655.295.846.191.2.47.296.838.296zM21.698 16.207c-2.626 1.94-6.442 2.969-9.722 2.969-4.598 0-8.74-1.7-11.87-4.526-.247-.223-.024-.527.272-.351 3.384 1.963 7.559 3.153 11.877 3.153 2.914 0 6.114-.607 9.06-1.852.439-.2.814.287.383.607zM22.792 14.961c-.336-.43-2.22-.207-3.074-.103-.255.032-.295-.192-.063-.36 1.5-1.053 3.967-.75 4.254-.399.287.36-.08 2.826-1.485 4.007-.215.184-.423.088-.327-.151.32-.79 1.03-2.57.695-2.994z"/></symbol>
    <symbol id="lambda" viewBox="0 0 24 24"><path fill="#fbbf24" d="M4.9855 0c-.2941.0031-.5335.2466-.534.5482L4.446 5.456c0 .1451.06.2835.159.3891a.5322.5322 0 0 0 .3806.1562h3.4282l8.197 17.6805a.5365.5365 0 0 0 .4885.3181h5.811c.2969 0 .5426-.2448.5426-.5482V18.544c0-.3035-.2392-.5482-.5425-.5482h-2.0138L12.7394.3153C12.647.124 12.4564 0 12.2452 0h-7.254Zm.5397 1.0907h6.3678l8.16 17.6804a.5365.5365 0 0 0 .4885.3181h1.8178v3.8173H17.437L9.2402 5.226a.536.536 0 0 0-.4885-.318H5.5223Zm2.0137 8.2366c-.2098.0011-.3937.1193-.4857.3096L.6002 23.2133a.5506.5506 0 0 0 .0313.5282.5334.5334 0 0 0 .4544.25h6.169a.5468.5468 0 0 0 .497-.3096l3.38-7.166a.5405.5405 0 0 0-.0029-.4686L8.036 9.637a.5468.5468 0 0 0-.4942-.3096Zm.0057 1.8036 2.488 5.1522-3.1214 6.6206H1.9465Z"/></symbol>
    <symbol id="s3" viewBox="0 0 24 24"><path fill="#34d399" d="M20.913 13.147l.12-.895c.947.576 1.258.922 1.354 1.071-.16.031-.562.046-1.474-.176zm-2.174 7.988a.547.547 0 0 0-.005.073c0 .084-.207.405-1.124.768a10.28 10.28 0 0 1-1.438.432c-1.405.325-3.128.504-4.853.504-4.612 0-7.412-1.184-7.412-1.704a.547.547 0 0 0-.005-.073L1.81 5.602c.135.078.28.154.432.227.042.02.086.038.128.057.134.062.272.122.417.18l.179.069c.154.058.314.114.478.168.043.013.084.029.13.043.207.065.423.127.646.187l.176.044c.175.044.353.087.534.127a23.414 23.414 0 0 0 .843.17l.121.023c.252.045.508.085.768.122.071.011.144.02.216.03.2.027.4.053.604.077l.24.027c.245.026.49.05.74.07l.081.009c.275.022.552.04.83.056l.233.012c.21.01.422.018.633.025a33.088 33.088 0 0 0 2.795-.026l.232-.011c.278-.016.555-.034.83-.056l.08-.008c.25-.02.497-.045.742-.072l.238-.026c.205-.024.408-.05.609-.077.07-.01.141-.019.211-.03.261-.037.519-.078.772-.122l.111-.02c.215-.04.427-.082.634-.125l.212-.047c.186-.041.368-.085.546-.13l.166-.042c.225-.06.444-.122.654-.189.04-.012.077-.026.115-.038a10.6 10.6 0 0 0 .493-.173c.058-.021.114-.044.17-.066.15-.06.293-.12.43-.185.038-.017.079-.034.116-.052.153-.073.3-.15.436-.228l-.976 7.245c-2.488-.78-5.805-2.292-7.311-3a1.09 1.09 0 0 0-1.088-1.085c-.6 0-1.088.489-1.088 1.088 0 .6.488 1.089 1.088 1.089.196 0 .378-.056.537-.148 1.72.812 5.144 2.367 7.715 3.15zm-7.42-20.047c5.677 0 9.676 1.759 9.75 2.736l-.014.113c-.01.033-.031.067-.048.101-.015.028-.026.057-.047.087-.024.033-.058.068-.09.102-.028.03-.051.06-.084.09-.038.035-.087.07-.133.105-.04.03-.074.06-.119.091-.053.036-.116.071-.177.107-.05.03-.095.06-.15.09-.068.036-.147.073-.222.11-.059.028-.114.057-.177.085-.084.038-.177.074-.268.111-.068.027-.13.054-.203.082-.097.036-.205.072-.31.107-.075.026-.148.053-.228.079-.111.035-.233.069-.35.103-.085.024-.165.05-.253.073-.124.034-.258.065-.389.098-.093.022-.181.046-.278.068-.139.032-.287.061-.433.091-.098.02-.191.041-.293.06-.155.03-.32.057-.482.084-.1.018-.198.036-.302.052-.166.026-.342.048-.515.072-.11.014-.213.03-.325.044-.181.023-.372.041-.56.06-.11.012-.218.025-.332.036-.188.016-.386.029-.58.043-.122.009-.24.02-.364.028-.207.012-.422.02-.635.028-.12.005-.234.012-.354.016a35.605 35.605 0 0 1-2.069 0c-.12-.004-.234-.011-.352-.016-.214-.008-.43-.016-.637-.028-.122-.008-.238-.02-.36-.027-.195-.015-.394-.028-.584-.044-.11-.01-.215-.024-.324-.035-.19-.02-.384-.038-.568-.06l-.315-.044c-.176-.024-.355-.046-.525-.073-.1-.015-.192-.033-.29-.05-.167-.028-.335-.055-.494-.086-.096-.018-.183-.038-.276-.056-.151-.032-.305-.062-.45-.095-.09-.02-.173-.043-.26-.064-.138-.034-.277-.067-.407-.102-.082-.022-.157-.046-.235-.069a11.75 11.75 0 0 1-.368-.108c-.075-.024-.141-.049-.213-.073-.11-.037-.223-.075-.325-.113-.067-.025-.125-.051-.188-.077-.096-.038-.195-.076-.282-.115-.06-.027-.11-.054-.166-.08-.08-.039-.162-.077-.233-.116-.052-.028-.094-.055-.142-.084-.063-.038-.13-.075-.185-.113-.043-.029-.075-.058-.113-.086-.048-.037-.098-.073-.139-.11-.032-.029-.054-.057-.08-.087-.033-.035-.069-.07-.093-.104-.02-.03-.031-.058-.046-.086-.018-.035-.039-.068-.049-.102l-.015-.113c.076-.977 4.074-2.736 9.748-2.736zm12.182 12.124c-.118-.628-.84-1.291-2.31-2.128l.963-7.16a.531.531 0 0 0 .005-.073C22.16 1.581 16.447 0 11.32 0 6.194 0 .482 1.581.482 3.851a.58.58 0 0 0 .005.072L2.819 21.25c.071 2.002 5.236 2.75 8.5 2.75 1.805 0 3.615-.188 5.098-.531.598-.138 1.133-.3 1.592-.48 1.18-.467 1.789-1.053 1.813-1.739l.945-7.018c.557.131 1.016.197 1.389.197.54 0 .902-.137 1.134-.413a.956.956 0 0 0 .21-.804Z"/></symbol>
    <symbol id="dynamo" viewBox="0 0 24 24"><path fill="#60a5fa" d="M16.606 20.705v-2.371c-1.263 1.082-3.884 1.795-7.066 1.795-3.184 0-5.805-.714-7.068-1.797v2.369c0 1.168 2.903 2.47 7.068 2.47 4.16 0 7.06-1.3 7.066-2.466zm.001-6.765l.817-.005v.005c0 .517-.258.998-.75 1.441.601.54.75 1.071.75 1.449a1661.7 1661.7 0 0 0 0 3.87c0 1.881-3.389 3.3-7.884 3.3-4.471 0-7.846-1.404-7.88-3.27a583.119 583.119 0 0 1-.003-3.909c.001-.375.15-.9.745-1.437-.592-.538-.743-1.062-.746-1.435v-3.892c.002-.377.153-.903.747-1.438-.593-.54-.744-1.062-.747-1.435 0-1.357-.002-2.735.002-3.897C1.674 1.412 5.056 0 9.54 0c2.159 0 4.233.356 5.689.974l-.315.766c-1.36-.58-3.319-.91-5.374-.91-4.165 0-7.067 1.3-7.067 2.47 0 1.168 2.902 2.47 7.067 2.47.115 0 .222 0 .334-.005l.033.828c-.122.006-.245.006-.367.006-3.184 0-5.805-.714-7.068-1.798v2.38c.005.45.45.843.821 1.093 1.116.736 3.114 1.239 5.34 1.342l-.037.829c-2.254-.105-4.23-.59-5.5-1.332-.318.245-.623.573-.623.952 0 1.168 2.902 2.47 7.067 2.47.411 0 .812-.014 1.203-.042l.06.826c-.41.03-.833.045-1.263.045-3.184 0-5.805-.713-7.068-1.797v2.368c.005.462.449.855.821 1.104 1.275.842 3.67 1.366 6.247 1.366h.182v.83H9.54c-2.62 0-4.99-.507-6.444-1.359-.317.245-.623.574-.623.954 0 1.168 2.902 2.47 7.067 2.47 4.159 0 7.058-1.298 7.066-2.465v-.007c0-.377-.303-.705-.62-.948a5.732 5.732 0 0 1-.662.336l-.316-.764c.3-.128.56-.266.776-.412.376-.254.823-.651.823-1.1zm4.377-6.915h-2.717a.406.406 0 0 1-.332-.173.42.42 0 0 1-.055-.375l1.204-3.597h-5.403l-2.583 4.974h2.623c.128 0 .248.06.325.164a.418.418 0 0 1 .069.36l-2.249 8.365zm1.249-.128l-10.89 11.608a.408.408 0 0 1-.498.075.418.418 0 0 1-.192-.471l2.534-9.426h-2.766a.407.407 0 0 1-.349-.2.418.418 0 0 1-.012-.407l3.014-5.804a.408.408 0 0 1 .36-.222h6.22c.132 0 .256.065.332.174a.422.422 0 0 1 .055.374l-1.204 3.598h3.1c.164 0 .31.099.375.251a.422.422 0 0 1-.08.45zM3.085 20.723a8.107 8.107 0 0 0 1.72.72l.233-.794a7.32 7.32 0 0 1-1.546-.645zm1.72-5.984l.233-.795a7.262 7.262 0 0 1-1.546-.646l-.407.72a8.051 8.051 0 0 0 1.72.72zm-1.72-7.427l.407-.719c.418.244.939.462 1.546.646l-.232.794a8.046 8.046 0 0 1-1.72-.72Z"/></symbol>
    <symbol id="snowflake" viewBox="0 0 24 24"><path fill="#7dd3fc" d="M7.602 12.4c.038-.151.076-.304.076-.456 0-.114-.038-.228-.038-.342-.114-.343-.304-.647-.646-.838l-4.87-2.777c-.685-.38-1.56-.152-1.94.533-.381.685-.153 1.56.532 1.94l2.701 1.56-2.701 1.56c-.685.38-.913 1.256-.533 1.94.38.685 1.256.914 1.94.533l4.832-2.777c.343-.267.571-.533.647-.876zm1.332 2.626c-.266-.038-.57.038-.837.19l-4.832 2.777c-.685.38-.913 1.256-.532 1.94.38.686 1.255.914 1.94.533l2.701-1.56v3.12c0 .8.647 1.408 1.446 1.408.799 0 1.407-.647 1.407-1.408v-5.592c0-.761-.57-1.37-1.293-1.408zm4.946-6.088c.266.038.57-.038.837-.19l4.832-2.777c.685-.38.913-1.256.532-1.94-.38-.686-1.255-.914-1.94-.533l-2.701 1.56V1.975c0-.799-.647-1.408-1.446-1.408-.799 0-1.446.609-1.446 1.408V7.53c0 .76.609 1.37 1.332 1.407zM3.265 5.97l4.832 2.777c.266.152.533.19.837.19.723-.038 1.331-.684 1.331-1.407V1.975c0-.799-.646-1.408-1.407-1.408-.799 0-1.446.647-1.446 1.408v3.12l-2.701-1.56c-.685-.38-1.56-.152-1.94.533-.419.646-.19 1.521.494 1.902zm18.22 8.184l-2.701 1.56 2.7 1.56c.686.38.914 1.256.533 1.94-.38.685-1.255.913-1.94.533l-4.832-2.778a1.644 1.644 0 01-.647-.798c-.037-.153-.076-.305-.076-.457 0-.114.039-.228.039-.342.114-.343.342-.647.646-.837l4.832-2.778c.685-.38 1.56-.152 1.94.533.457.609.19 1.484-.494 1.864z"/></symbol>
    <symbol id="databricks" viewBox="0 0 24 24"><path fill="#f97316" d="M.95 14.184L12 20.403l9.919-5.55v2.21L12 22.662l-10.484-5.96-.565.308v.77L12 24l11.05-6.218v-4.317l-.515-.309L12 19.118l-9.867-5.653v-2.21L12 16.805l11.05-6.218V6.32l-.515-.308L12 11.974 2.647 6.681 12 1.388l7.76 4.368.668-.411v-.566L12 0 .95 6.27v.72L12 13.207l9.919-5.55v2.26L12 15.52 1.516 9.56l-.565.308Z"/></symbol>
    <symbol id="workday" viewBox="0 0 24 24">
      <rect x="0" y="0" width="24" height="24" rx="5" fill="#fb923c"/>
      <path fill="#ffffff" d="M3.8 7.5h2.6l1.3 6.2 1.4-6.2h2.1l1.4 6.2 1.3-6.2h2.6l-2.5 9h-2.6l-1.3-5.7-1.3 5.7H6.3z"/>
    </symbol>
    <symbol id="clickhouse" viewBox="0 0 24 24">
      <rect x="2" y="3" width="3" height="18" fill="#facc15"/>
      <rect x="7" y="3" width="3" height="18" fill="#facc15"/>
      <rect x="12" y="3" width="3" height="18" fill="#facc15"/>
      <rect x="17" y="3" width="3" height="18" fill="#facc15"/>
      <rect x="17" y="10.5" width="3" height="3" fill="#fde68a"/>
    </symbol>
    <symbol id="eventbridge" viewBox="0 0 24 24">
      <circle cx="12" cy="12" r="3.4" fill="#f472b6"/>
      <circle cx="3.6" cy="12" r="1.8" fill="#f472b6"/>
      <circle cx="20.4" cy="12" r="1.8" fill="#f472b6"/>
      <circle cx="12" cy="3.6" r="1.8" fill="#f472b6"/>
      <circle cx="12" cy="20.4" r="1.8" fill="#f472b6"/>
      <line x1="5.4" y1="12" x2="8.6" y2="12" stroke="#f472b6" stroke-width="1.6"/>
      <line x1="15.4" y1="12" x2="18.6" y2="12" stroke="#f472b6" stroke-width="1.6"/>
      <line x1="12" y1="5.4" x2="12" y2="8.6" stroke="#f472b6" stroke-width="1.6"/>
      <line x1="12" y1="15.4" x2="12" y2="18.6" stroke="#f472b6" stroke-width="1.6"/>
    </symbol>
    <symbol id="sfn" viewBox="0 0 24 24">
      <rect x="0" y="0" width="24" height="24" rx="5" fill="#ec4899"/>
      <circle cx="7" cy="7" r="2.2" fill="#ffffff"/>
      <circle cx="17" cy="12" r="2.2" fill="#ffffff"/>
      <circle cx="7" cy="17" r="2.2" fill="#ffffff"/>
      <line x1="8.8" y1="8.2" x2="15.4" y2="11.0" stroke="#ffffff" stroke-width="1.5"/>
      <line x1="15.4" y1="13.0" x2="8.8" y2="15.8" stroke="#ffffff" stroke-width="1.5"/>
    </symbol>
  </defs>

  <rect width="1280" height="760" fill="url(#bg)"/>
  <rect width="1280" height="760" fill="url(#grid)"/>

  <g font-family="Segoe UI, ui-sans-serif, Arial, sans-serif">
    <g transform="translate(46,38)">
      <rect x="0" y="0" width="240" height="32" rx="16" fill="#221306" stroke="#f59e0b"/>
      <use href="#aws" x="12" y="7" width="18" height="18"/>
      <text x="38" y="21" fill="#fbbf24" font-size="12" font-weight="800" letter-spacing="1.4">AWS FLAGSHIP WORKFLOW</text>
    </g>
    <text x="46" y="110" fill="url(#headline)" font-size="32" font-weight="900" letter-spacing="-0.5">IAM departures remediation</text>
    <text x="46" y="134" fill="#94a3b8" font-size="13">Any source in. One record shape. Guarded AWS orchestration. Scoped cross-account write. Report back to any sink.</text>

    <g>
      <rect x="46" y="150" width="1188" height="34" rx="17" fill="#0b1730" stroke="#475569"/>
      <text x="66" y="172" fill="#e2e8f0" font-size="13" font-weight="800">DepartureRecord</text>
      <g font-size="12" font-weight="700">
        <rect x="204" y="158" width="118" height="18" rx="9" fill="#0d2539" stroke="#38bdf8"/>
        <text x="263" y="171" text-anchor="middle" fill="#bae6fd">terminated_at</text>
        <rect x="330" y="158" width="82" height="18" rx="9" fill="#0d2539" stroke="#38bdf8"/>
        <text x="371" y="171" text-anchor="middle" fill="#bae6fd">email</text>
        <rect x="420" y="158" width="126" height="18" rx="9" fill="#0d2539" stroke="#38bdf8"/>
        <text x="483" y="171" text-anchor="middle" fill="#bae6fd">iam_username</text>
        <rect x="554" y="158" width="176" height="18" rx="9" fill="#0d2539" stroke="#38bdf8"/>
        <text x="642" y="171" text-anchor="middle" fill="#bae6fd">recipient_account_id</text>
      </g>
      <text x="746" y="172" fill="#64748b" font-size="11">+ rehire, deletion, and hash metadata · normalized in every source</text>
    </g>

    <g stroke="#38bdf8" stroke-width="1.6" stroke-dasharray="8 6" fill="none">
      <rect x="46" y="200" width="244" height="286" rx="16"/>
    </g>
    <text x="62" y="222" fill="#7dd3fc" font-size="12" font-weight="800" letter-spacing="1.2">SOURCES · any one</text>

    <g stroke="#f59e0b" stroke-width="1.6" stroke-dasharray="8 6" fill="none">
      <rect x="308" y="200" width="190" height="286" rx="16"/>
    </g>
    <text x="324" y="222" fill="#fbbf24" font-size="12" font-weight="800" letter-spacing="1.2">AWS · SECURITY OU</text>

    <g stroke="#34d399" stroke-width="1.6" stroke-dasharray="8 6" fill="none">
      <rect x="516" y="200" width="418" height="286" rx="16"/>
    </g>
    <text x="532" y="222" fill="#6ee7b7" font-size="12" font-weight="800" letter-spacing="1.2">VPC · step function</text>

    <g stroke="#f87171" stroke-width="1.6" stroke-dasharray="8 6" fill="none">
      <rect x="952" y="200" width="282" height="286" rx="16"/>
    </g>
    <text x="968" y="222" fill="#fca5a5" font-size="12" font-weight="800" letter-spacing="1.2">TARGET ACCOUNTS · cross-account</text>

    <g filter="url(#shadow)">
      <rect x="62" y="238" width="212" height="42" rx="10" fill="url(#panel)" stroke="#7dd3fc" stroke-width="1.2"/>
      <use href="#snowflake" x="74" y="248" width="22" height="22"/>
      <text x="106" y="264" fill="#e0f2fe" font-size="13" font-weight="800">Snowflake</text>
      <text x="106" y="276" fill="#94a3b8" font-size="10">warehouse task / stream</text>

      <rect x="62" y="286" width="212" height="42" rx="10" fill="url(#panel)" stroke="#fb923c" stroke-width="1.2"/>
      <use href="#workday" x="74" y="296" width="22" height="22"/>
      <text x="106" y="312" fill="#ffedd5" font-size="13" font-weight="800">Workday</text>
      <text x="106" y="324" fill="#94a3b8" font-size="10">HR lifecycle events</text>

      <rect x="62" y="334" width="212" height="42" rx="10" fill="url(#panel)" stroke="#fb923c" stroke-width="1.2"/>
      <use href="#databricks" x="74" y="344" width="22" height="22"/>
      <text x="106" y="360" fill="#ffedd5" font-size="13" font-weight="800">Databricks</text>
      <text x="106" y="372" fill="#94a3b8" font-size="10">lakehouse SQL</text>

      <rect x="62" y="382" width="212" height="42" rx="10" fill="url(#panel)" stroke="#facc15" stroke-width="1.2"/>
      <use href="#clickhouse" x="74" y="392" width="22" height="22"/>
      <text x="106" y="408" fill="#fef9c3" font-size="13" font-weight="800">ClickHouse</text>
      <text x="106" y="420" fill="#94a3b8" font-size="10">OLAP table</text>
    </g>

    <g filter="url(#shadow)">
      <rect x="322" y="244" width="162" height="114" rx="14" fill="url(#panel)" stroke="#34d399" stroke-width="1.4"/>
      <use href="#s3" x="338" y="260" width="26" height="26"/>
      <text x="372" y="278" fill="#d1fae5" font-size="14" font-weight="800">S3 bucket</text>
      <text x="338" y="302" fill="#94a3b8" font-size="10">same bucket · two prefixes</text>
      <rect x="338" y="310" width="136" height="18" rx="9" fill="#0c2c23" stroke="#34d399"/>
      <text x="406" y="323" text-anchor="middle" fill="#bbf7d0" font-size="10" font-weight="700">departures/ · manifest</text>
      <rect x="338" y="332" width="136" height="18" rx="9" fill="#0c2c23" stroke="#2dd4bf"/>
      <text x="406" y="345" text-anchor="middle" fill="#99f6e4" font-size="10" font-weight="700">departures/audit/ · logs</text>

      <rect x="322" y="370" width="162" height="98" rx="14" fill="url(#panel)" stroke="#f472b6" stroke-width="1.4"/>
      <use href="#eventbridge" x="338" y="382" width="26" height="26"/>
      <text x="372" y="401" fill="#fbcfe8" font-size="14" font-weight="800">EventBridge</text>
      <text x="338" y="424" fill="#94a3b8" font-size="11">rule on S3</text>
      <text x="338" y="440" fill="#94a3b8" font-size="11">ObjectCreated</text>
      <text x="338" y="456" fill="#94a3b8" font-size="11">starts Step Function</text>
    </g>

    <g filter="url(#shadow)">
      <rect x="530" y="240" width="126" height="64" rx="12" fill="url(#panel)" stroke="#ec4899" stroke-width="1.4"/>
      <use href="#sfn" x="544" y="252" width="22" height="22"/>
      <text x="574" y="267" fill="#fbcfe8" font-size="12" font-weight="800">Step Function</text>
      <text x="544" y="290" fill="#94a3b8" font-size="10">map · one user per item</text>
    </g>

    <g filter="url(#shadow)">
      <rect x="530" y="322" width="194" height="148" rx="14" fill="url(#panel)" stroke="#fbbf24" stroke-width="1.6"/>
      <use href="#lambda" x="546" y="338" width="22" height="22"/>
      <text x="576" y="355" fill="#fef3c7" font-size="15" font-weight="800">Parser Lambda</text>
      <text x="546" y="378" fill="#cbd5e1" font-size="11">fetch record + resolve</text>

      <rect x="546" y="388" width="162" height="22" rx="11" fill="#10233d" stroke="#3b82f6"/>
      <text x="627" y="403" text-anchor="middle" fill="#bfdbfe" font-size="11" font-weight="700">read S3 record</text>
      <rect x="546" y="414" width="162" height="22" rx="11" fill="#10233d" stroke="#3b82f6"/>
      <text x="627" y="429" text-anchor="middle" fill="#bfdbfe" font-size="11" font-weight="700">resolve IAM principal</text>
      <rect x="546" y="440" width="162" height="22" rx="11" fill="#10233d" stroke="#3b82f6"/>
      <text x="627" y="455" text-anchor="middle" fill="#bfdbfe" font-size="11" font-weight="700">resolve target account</text>
    </g>

    <g filter="url(#shadow)">
      <rect x="742" y="322" width="184" height="148" rx="14" fill="url(#panel)" stroke="#fbbf24" stroke-width="1.6"/>
      <use href="#lambda" x="758" y="338" width="22" height="22"/>
      <text x="788" y="355" fill="#fef3c7" font-size="15" font-weight="800">Worker Lambda</text>
      <text x="758" y="378" fill="#cbd5e1" font-size="11">scoped IAM write</text>

      <rect x="758" y="388" width="152" height="22" rx="11" fill="#241607" stroke="#f59e0b"/>
      <text x="834" y="403" text-anchor="middle" fill="#fde68a" font-size="11" font-weight="700">dry-run</text>
      <rect x="758" y="414" width="152" height="22" rx="11" fill="#241607" stroke="#f59e0b"/>
      <text x="834" y="429" text-anchor="middle" fill="#fde68a" font-size="11" font-weight="700">revoke · strip · delete</text>
      <rect x="758" y="440" width="152" height="22" rx="11" fill="#241607" stroke="#f59e0b"/>
      <text x="834" y="455" text-anchor="middle" fill="#fde68a" font-size="11" font-weight="700">AssumeRole + OrgID</text>
    </g>

    <text x="720" y="494" text-anchor="middle" fill="#64748b" font-size="9" font-weight="700">separate IAM roles: parser ≠ worker ≠ cross-account target</text>

    <g>
      <rect x="968" y="240" width="250" height="230" rx="14" fill="url(#panel)" stroke="#f87171" stroke-width="1.4"/>
      <use href="#aws" x="984" y="256" width="24" height="24"/>
      <text x="1018" y="274" fill="#fecaca" font-size="14" font-weight="800">Scoped IAM writes</text>
      <text x="984" y="298" fill="#94a3b8" font-size="11">aws:PrincipalOrgID guardrail</text>

      <text x="984" y="328" fill="#fee2e2" font-size="12" font-weight="800">1. Revoke all credentials</text>
      <text x="984" y="350" fill="#94a3b8" font-size="11">keys · console · MFA · certs</text>

      <text x="984" y="376" fill="#fee2e2" font-size="12" font-weight="800">2. Strip all permissions</text>
      <text x="984" y="398" fill="#94a3b8" font-size="11">groups · inline · attached</text>

      <text x="984" y="424" fill="#fee2e2" font-size="12" font-weight="800">3. Quarantine + delete</text>
      <text x="984" y="446" fill="#94a3b8" font-size="11">tag · detach · delete user</text>

      <rect x="984" y="454" width="218" height="10" rx="5" fill="#f87171" opacity="0.2"/>
      <text x="1093" y="463" text-anchor="middle" fill="#fecaca" font-size="10" font-weight="800">10-step cleanup · 13 IAM API ops</text>
    </g>

    <path d="M274,260 L322,280" fill="none" stroke="#94a3b8" stroke-width="2" marker-end="url(#arrow)"/>
    <path d="M274,307 L322,296" fill="none" stroke="#94a3b8" stroke-width="2" marker-end="url(#arrow)"/>
    <path d="M274,355 L322,312" fill="none" stroke="#94a3b8" stroke-width="2" marker-end="url(#arrow)"/>
    <path d="M274,403 L322,328" fill="none" stroke="#94a3b8" stroke-width="2" marker-end="url(#arrow)"/>

    <path d="M403,358 L403,370" fill="none" stroke="#94a3b8" stroke-width="2" marker-end="url(#arrow)"/>

    <path d="M484,419 C504,419 510,272 530,272" fill="none" stroke="#94a3b8" stroke-width="2.2" marker-end="url(#arrow)"/>

    <path d="M593,304 L593,322" fill="none" stroke="#ec4899" stroke-width="2.2" marker-end="url(#arrowLoop)"/>
    <path d="M724,396 L742,396" fill="none" stroke="#94a3b8" stroke-width="2.2" marker-end="url(#arrow)"/>
    <path d="M926,396 L968,356" fill="none" stroke="#f59e0b" stroke-width="2.6" marker-end="url(#arrowWarm)"/>

    <g stroke="#2dd4bf" stroke-width="1.6" stroke-dasharray="8 6" fill="none">
      <rect x="46" y="510" width="1188" height="170" rx="16"/>
    </g>
    <text x="62" y="532" fill="#5eead4" font-size="12" font-weight="800" letter-spacing="1.2">REPORT BACK · configurable sinks · one or many</text>
    <text x="62" y="696" fill="#64748b" font-size="11">worker writes every action; the next reconciler run verifies closure from audit/state sinks</text>

    <g filter="url(#shadow)">
      <rect x="70" y="548" width="360" height="116" rx="14" fill="url(#panel)" stroke="#60a5fa" stroke-width="1.4"/>
      <use href="#dynamo" x="88" y="566" width="26" height="26"/>
      <text x="122" y="584" fill="#dbeafe" font-size="14" font-weight="800">DynamoDB audit</text>
      <text x="88" y="606" fill="#94a3b8" font-size="11">written by worker directly</text>
      <text x="88" y="624" fill="#94a3b8" font-size="11">(account, user) key</text>
      <text x="88" y="642" fill="#94a3b8" font-size="11">live state-of-remediation</text>

      <rect x="450" y="548" width="360" height="116" rx="14" fill="url(#panel)" stroke="#7dd3fc" stroke-width="1.4"/>
      <use href="#snowflake" x="468" y="566" width="26" height="26"/>
      <text x="502" y="584" fill="#e0f2fe" font-size="14" font-weight="800">Snowflake</text>
      <text x="468" y="606" fill="#94a3b8" font-size="11">Snowpipe on departures/audit/</text>
      <text x="468" y="624" fill="#94a3b8" font-size="11">next reconciler sees closed users</text>
      <text x="468" y="642" fill="#7dd3fc" font-size="10" font-style="italic">auto-ingest from S3</text>

      <rect x="830" y="548" width="360" height="116" rx="14" fill="url(#panel)" stroke="#fb923c" stroke-width="1.4"/>
      <use href="#databricks" x="848" y="566" width="26" height="26"/>
      <text x="882" y="584" fill="#ffedd5" font-size="14" font-weight="800">Databricks</text>
      <text x="848" y="606" fill="#94a3b8" font-size="11">Auto Loader on departures/audit/</text>
      <text x="848" y="624" fill="#94a3b8" font-size="11">same close-loop via lakehouse</text>
      <text x="848" y="642" fill="#fb923c" font-size="10" font-style="italic">ClickHouse uses the same pattern</text>
    </g>

    <path d="M250,548 C250,510 150,510 24,510 L24,214 L46,214" fill="none" stroke="#ec4899" stroke-width="2" stroke-dasharray="6 5" marker-end="url(#arrowLoop)"/>

    <g font-size="11" fill="#64748b">
      <text x="46" y="710">AWS-only flagship. Azure Entra and GCP IAM use separate native pipelines. No worker crosses cloud boundaries.</text>
      <text x="46" y="728">Dry-run first. Human-required approval. Deny-list for root, break-glass, emergency users.</text>
    </g>
  </g>
</svg>
