<svg xmlns="http://www.w3.org/2000/svg" width="1200" height="340" viewBox="0 0 1200 340" role="img" aria-labelledby="title desc">
  <title id="title">Snowflake security data lake</title>
  <desc id="desc">Closed-loop flow: source signals, OCSF ingest, append-only Snowflake lake, detect and evaluate, HITL remediate, audit write-back.</desc>

  <defs>
    <linearGradient id="bg" x1="0" y1="0" x2="1" y2="1">
      <stop offset="0%" stop-color="#060b17"/>
      <stop offset="100%" stop-color="#0a1528"/>
    </linearGradient>
    <symbol id="snowflake" viewBox="0 0 24 24">
      <path fill="#29B5E8" d="M24 3.459c0 .646-.418 1.18-1.141 1.18-.723 0-1.142-.534-1.142-1.18 0-.647.419-1.18 1.142-1.18.723 0 1.141.533 1.141 1.18zm-.228 0c0-.533-.38-.951-.913-.951s-.913.38-.913.95c0 .533.38.952.913.952.57 0 .913-.419.913-.951zm-1.37-.533h.495c.266 0 .456.152.456.38 0 .153-.076.229-.19.305l.19.266v.038h-.266l-.19-.266h-.229v.266h-.266zm.495.228h-.229v.267h.229c.114 0 .152-.038.152-.114.038-.077-.038-.153-.152-.153zM7.602 12.4c.038-.151.076-.304.076-.456 0-.114-.038-.228-.038-.342-.114-.343-.304-.647-.646-.838l-4.87-2.777c-.685-.38-1.56-.152-1.94.533-.381.685-.153 1.56.532 1.94l2.701 1.56-2.701 1.56c-.685.38-.913 1.256-.533 1.94.38.685 1.256.914 1.94.533l4.832-2.777c.343-.267.571-.533.647-.876zm1.332 2.626c-.266-.038-.57.038-.837.19l-4.832 2.777c-.685.38-.913 1.256-.532 1.94.38.686 1.255.914 1.94.533l2.701-1.56v3.12c0 .8.647 1.408 1.446 1.408.799 0 1.407-.647 1.407-1.408v-5.592c0-.761-.57-1.37-1.293-1.408zm4.946-6.088c.266.038.57-.038.837-.19l4.832-2.777c.685-.38.913-1.256.532-1.94-.38-.686-1.255-.914-1.94-.533l-2.701 1.56V1.975c0-.799-.647-1.408-1.446-1.408-.799 0-1.446.609-1.446 1.408V7.53c0 .76.609 1.37 1.332 1.407zM3.265 5.97l4.832 2.777c.266.152.533.19.837.19.723-.038 1.331-.684 1.331-1.407V1.975c0-.799-.646-1.408-1.407-1.408-.799 0-1.446.647-1.446 1.408v3.12l-2.701-1.56c-.685-.38-1.56-.152-1.94.533-.419.646-.19 1.521.494 1.902zm9.093 6.011a.412.412 0 00-.114-.266l-.57-.571a.346.346 0 00-.267-.114.412.412 0 00-.266.114l-.571.57a.411.411 0 00-.114.267c0 .076.038.19.114.267l.57.57a.345.345 0 00.267.114c.076 0 .19-.038.266-.114l.571-.57a.412.412 0 00.114-.267zm1.598.533L11.94 14.53c-.039.038-.153.114-.229.114h-.608a.411.411 0 01-.267-.114L8.82 12.514a.408.408 0 01-.076-.229v-.608c0-.076.038-.19.114-.267l2.016-2.016a.41.41 0 01.267-.114h.608a.41.41 0 01.267.114l2.016 2.016a.347.347 0 01.114.267v.608c-.076.077-.114.19-.19.229zm5.593 5.44l-4.832-2.777c-.266-.152-.57-.19-.837-.152-.723.038-1.332.684-1.332 1.408v5.554c0 .8.647 1.408 1.408 1.408.799 0 1.446-.647 1.446-1.408v-3.12l2.7 1.56c.686.38 1.561.152 1.941-.533.419-.646.19-1.521-.494-1.94zm2.549-7.533l-2.701 1.56 2.7 1.56c.686.38.914 1.256.533 1.94-.38.685-1.255.913-1.94.533l-4.832-2.778a1.644 1.644 0 01-.647-.798c-.037-.153-.076-.305-.076-.457 0-.114.039-.228.039-.342.114-.343.342-.647.646-.837l4.832-2.778c.685-.38 1.56-.152 1.94.533.457.609.19 1.484-.494 1.864"/>
    </symbol>
    <marker id="arrow" viewBox="0 0 10 10" refX="9" refY="5" markerWidth="7" markerHeight="7" orient="auto">
      <path d="M0 0L10 5L0 10z" fill="#60a5fa"/>
    </marker>
    <marker id="arrowBack" viewBox="0 0 10 10" refX="9" refY="5" markerWidth="7" markerHeight="7" orient="auto">
      <path d="M0 0L10 5L0 10z" fill="#34d399"/>
    </marker>
  </defs>

  <rect width="1200" height="340" fill="url(#bg)"/>

  <g font-family="Inter, Segoe UI, ui-sans-serif, Arial, sans-serif">
    <text x="48" y="48" font-size="26" font-weight="800" fill="#f8fafc">Snowflake security data lake</text>
    <text x="48" y="74" font-size="13" fill="#94a3b8">Governed warehouse-native replay · append-only writes · audit write-back</text>

    <g transform="translate(48,108)">
      <rect x="0" y="0" width="130" height="88" rx="14" fill="#0f172a" stroke="#334155"/>
      <text x="65" y="32" text-anchor="middle" font-size="12" font-weight="700" fill="#e2e8f0">Sources</text>
      <text x="65" y="54" text-anchor="middle" font-size="10" fill="#94a3b8">CloudTrail · Okta</text>
      <text x="65" y="70" text-anchor="middle" font-size="10" fill="#94a3b8">K8s · SaaS logs</text>

      <path d="M138 44H168" stroke="#60a5fa" stroke-width="3" marker-end="url(#arrow)"/>

      <rect x="176" y="0" width="150" height="88" rx="14" fill="#112244" stroke="#60a5fa"/>
      <text x="251" y="32" text-anchor="middle" font-size="12" font-weight="700" fill="#dbeafe">Ingest</text>
      <text x="251" y="54" text-anchor="middle" font-size="10" fill="#94a3b8">22 ingest skills</text>
      <text x="251" y="70" text-anchor="middle" font-size="10" fill="#5eead4">→ OCSF 1.8</text>

      <path d="M334 44H364" stroke="#60a5fa" stroke-width="3" marker-end="url(#arrow)"/>

      <rect x="372" y="0" width="170" height="88" rx="14" fill="#0d3a70" stroke="#29b5e8" stroke-width="2"/>
      <use href="#snowflake" x="388" y="12" width="32" height="32"/>
      <text x="468" y="32" text-anchor="middle" font-size="12" font-weight="700" fill="#e0f2fe">Snowflake lake</text>
      <text x="468" y="54" text-anchor="middle" font-size="10" fill="#94a3b8">append-only JSONL</text>
      <text x="468" y="70" text-anchor="middle" font-size="10" fill="#94a3b8">RAP · dynamic tables</text>

      <path d="M550 44H580" stroke="#60a5fa" stroke-width="3" marker-end="url(#arrow)"/>

      <rect x="588" y="0" width="150" height="88" rx="14" fill="#0a3b35" stroke="#34d399"/>
      <text x="663" y="32" text-anchor="middle" font-size="12" font-weight="700" fill="#d1fae5">Detect</text>
      <text x="663" y="54" text-anchor="middle" font-size="10" fill="#94a3b8">71 skills · MITRE</text>
      <text x="663" y="70" text-anchor="middle" font-size="10" fill="#94a3b8">read-only replay</text>

      <path d="M746 44H776" stroke="#60a5fa" stroke-width="3" marker-end="url(#arrow)"/>

      <rect x="784" y="0" width="150" height="88" rx="14" fill="#4a2d09" stroke="#fbbf24"/>
      <text x="859" y="32" text-anchor="middle" font-size="12" font-weight="700" fill="#fde68a">Remediate</text>
      <text x="859" y="54" text-anchor="middle" font-size="10" fill="#94a3b8">HITL · dry-run</text>
      <text x="859" y="70" text-anchor="middle" font-size="10" fill="#94a3b8">dual audit</text>

      <path d="M942 44H972" stroke="#60a5fa" stroke-width="3" marker-end="url(#arrow)"/>

      <rect x="980" y="0" width="124" height="88" rx="14" fill="#083b39" stroke="#2dd4bf"/>
      <text x="1042" y="32" text-anchor="middle" font-size="12" font-weight="700" fill="#99f6e4">Audit</text>
      <text x="1042" y="54" text-anchor="middle" font-size="10" fill="#94a3b8">write-back</text>
      <text x="1042" y="70" text-anchor="middle" font-size="10" fill="#94a3b8">closed loop</text>
    </g>

    <!-- audit write-back arc -->
    <path d="M1028 204 C1028 248 468 248 468 204" stroke="#34d399" stroke-width="2" fill="none" stroke-dasharray="6 4" marker-end="url(#arrowBack)"/>
    <text x="748" y="268" text-anchor="middle" font-size="11" fill="#6ee7b7">ingest-back verifies closure on next reconciler run</text>

    <rect x="48" y="288" width="1104" height="36" rx="10" fill="#0b1220" stroke="#334155"/>
    <text x="68" y="312" font-size="11" fill="#94a3b8">Customer-owned trust boundary · no hosted runner required · packs in docs/SNOWFLAKE_DATA_LAKE.md</text>
  </g>
</svg>
